<?xml version="1.0" encoding="UTF-8" standalone="no"?>
<!-- Generator: Adobe Illustrator 13.0.1, SVG Export Plug-In . SVG Version: 6.00 Build 14948)  -->

<svg
   xmlns:dc="http://purl.org/dc/elements/1.1/"
   xmlns:cc="http://creativecommons.org/ns#"
   xmlns:rdf="http://www.w3.org/1999/02/22-rdf-syntax-ns#"
   xmlns:svg="http://www.w3.org/2000/svg"
   xmlns="http://www.w3.org/2000/svg"
   xmlns:sodipodi="http://sodipodi.sourceforge.net/DTD/sodipodi-0.dtd"
   xmlns:inkscape="http://www.inkscape.org/namespaces/inkscape"
   version="1.1"
   x="0px"
   y="0px"
   width="400"
   height="400"
   viewBox="0 0 400 400"
   enable-background="new 0 0 120 40"
   xml:space="preserve"
   id="svg21775"
   inkscape:version="0.91 r13725"
   sodipodi:docname="alien-unread.svg"
   inkscape:export-filename="D:\xampp\htdocs\GIT\RedditNotifier\data\alien-unread-512.png"
   inkscape:export-xdpi="115.2"
   inkscape:export-ydpi="115.2"><metadata
     id="metadata21839"><rdf:RDF><cc:Work
         rdf:about=""><dc:format>image/svg+xml</dc:format><dc:type
           rdf:resource="http://purl.org/dc/dcmitype/StillImage" /><dc:title></dc:title></cc:Work></rdf:RDF></metadata><defs
     id="defs21837" /><sodipodi:namedview
     pagecolor="#ffffff"
     bordercolor="#666666"
     borderopacity="1"
     objecttolerance="10"
     gridtolerance="10"
     guidetolerance="10"
     inkscape:pageopacity="0"
     inkscape:pageshadow="2"
     inkscape:window-width="1920"
     inkscape:window-height="1138"
     id="namedview21835"
     showgrid="false"
     inkscape:zoom="0.70710678"
     inkscape:cx="607.70715"
     inkscape:cy="106.96306"
     inkscape:window-x="-8"
     inkscape:window-y="-8"
     inkscape:window-maximized="1"
     inkscape:current-layer="svg21775"
     fit-margin-top="0"
     fit-margin-left="0"
     fit-margin-right="0"
     fit-margin-bottom="0" /><g
     id="Layer_2"
     transform="matrix(13.190013,0,0,13.190013,-601.0946,40.414033)"><g
       id="g21780"><g
         id="g21782" /><g
         id="g21786" /></g><g
       id="g21790"><g
         id="g21792" /><g
         id="g21796" /></g><path
       style="fill:none;stroke:#ff4500;stroke-width:10.267272;stroke-opacity:1"
       d="m 210.95117,153.56641 a 114.22806,74.549726 0 0 0 -83.29492,23.67187 25.220152,25.220152 0 0 0 -19.30273,-9.02734 25.220152,25.220152 0 0 0 -25.220708,25.21875 25.220152,25.220152 0 0 0 15.121094,23.0957 114.22806,74.549726 0 0 0 -1.529297,11.58984 114.22806,74.549726 0 0 0 114.226561,74.54883 114.22806,74.549726 0 0 0 114.22852,-74.54883 114.22806,74.549726 0 0 0 -1.38477,-11.17968 25.220152,25.220152 0 0 0 16.07617,-23.50586 25.220152,25.220152 0 0 0 -25.2207,-25.21875 25.220152,25.220152 0 0 0 -19.68945,9.5 114.22806,74.549726 0 0 0 -84.00977,-24.14453 z"
       transform="matrix(0.10713654,0,0,0.10713654,38.075349,-8.8874749)"
       id="circle21800"
       inkscape:connector-curvature="0" /><path
       d="m 68.226,2.352 c 0,0 0,0 -5.404,-1.272 l -1.986,6.278"
       id="path21804"
       inkscape:connector-curvature="0"
       style="fill:none;stroke:#ff4500;stroke-width:1.10000002;stroke-linecap:round;stroke-linejoin:round;stroke-opacity:1" /><circle
       cx="70.431"
       cy="2.789"
       r="2.1300001"
       id="circle21808"
       style="fill:none;stroke:#ff4500;stroke-width:1.10000002;stroke-opacity:1" /><ellipse
       cx="60.675999"
       cy="15.552"
       rx="12.238"
       ry="7.987"
       id="ellipse21820"
       style="fill:none;stroke:#ff4500;stroke-width:1.10000002;stroke-opacity:1" /><g
       id="g21824"><path
         style="fill:#ff4500;stroke:none"
         d="m 135.90625,159.65625 c -13.67995,0 -25.15625,11.4763 -25.15625,25.15625 0,13.67995 11.4763,24.78125 25.15625,24.78125 13.67995,0 24.78125,-11.1013 24.78125,-24.78125 0,-13.67995 -11.1013,-25.15625 -24.78125,-25.15625 z"
         transform="matrix(0.07946,0,0,0.07946,45.637601,-0.68559946)"
         id="circle21826"
         inkscape:connector-curvature="0" /><path
         style="fill:#ff4500;stroke:none"
         d="m 244.46875,159.65625 c -13.68691,0 -25.1875,11.46934 -25.1875,25.15625 0,13.68691 11.50059,24.78125 25.1875,24.78125 13.68692,0 24.78125,-11.09434 24.78125,-24.78125 0,-13.68691 -11.09433,-25.15625 -24.78125,-25.15625 z"
         transform="matrix(0.07946,0,0,0.07946,45.637601,-0.68559946)"
         id="circle21828"
         inkscape:connector-curvature="0" /><path
         d="m 56.507,19.229 c 1.066,1.066 2.786,1.271 4.212,1.271"
         id="path21830"
         inkscape:connector-curvature="0"
         style="fill:none;stroke:#ff4500;stroke-width:1.10000002;stroke-linecap:round;stroke-opacity:1" /><path
         d="M 64.963,19.229 C 63.896,20.295 62.177,20.5 60.75,20.5"
         id="path21832"
         inkscape:connector-curvature="0"
         style="fill:none;stroke:#ff4500;stroke-width:1.10000002;stroke-linecap:round;stroke-opacity:1" /></g></g><g
     id="Layer_3"
     transform="translate(-56.498719,376.97287)" /></svg>