<?xml version="1.0" encoding="UTF-8" standalone="no"?>
<!-- Created with Inkscape (http://www.inkscape.org/) -->

<svg
   xmlns:dc="http://purl.org/dc/elements/1.1/"
   xmlns:cc="http://creativecommons.org/ns#"
   xmlns:rdf="http://www.w3.org/1999/02/22-rdf-syntax-ns#"
   xmlns:svg="http://www.w3.org/2000/svg"
   xmlns="http://www.w3.org/2000/svg"
   xmlns:sodipodi="http://sodipodi.sourceforge.net/DTD/sodipodi-0.dtd"
   xmlns:inkscape="http://www.inkscape.org/namespaces/inkscape"
   width="512"
   height="512"
   viewBox="0 0 511.99999 511.99999"
   id="svg4170"
   version="1.1"
   inkscape:version="0.91 r13725"
   sodipodi:docname="icon-reload.svg"
   inkscape:export-filename="D:\xampp\htdocs\GIT\RedditNotifier\data\icon\reload\icon-16.png"
   inkscape:export-xdpi="2.8099999"
   inkscape:export-ydpi="2.8099999">
  <defs
     id="defs4172" />
  <sodipodi:namedview
     id="base"
     pagecolor="#ffffff"
     bordercolor="#666666"
     borderopacity="1.0"
     inkscape:pageopacity="0.0"
     inkscape:pageshadow="2"
     inkscape:zoom="0.70710678"
     inkscape:cx="6.6933997"
     inkscape:cy="448.95354"
     inkscape:document-units="px"
     inkscape:current-layer="g4752"
     showgrid="false"
     inkscape:window-width="1920"
     inkscape:window-height="1138"
     inkscape:window-x="-8"
     inkscape:window-y="-8"
     inkscape:window-maximized="1"
     units="px" />
  <metadata
     id="metadata4175">
    <rdf:RDF>
      <cc:Work
         rdf:about="">
        <dc:format>image/svg+xml</dc:format>
        <dc:type
           rdf:resource="http://purl.org/dc/dcmitype/StillImage" />
        <dc:title></dc:title>
      </cc:Work>
    </rdf:RDF>
  </metadata>
  <g
     inkscape:label="Layer 1"
     inkscape:groupmode="layer"
     id="layer1"
     transform="translate(0,-540.36219)">
    <g
       id="g4743"
       transform="matrix(32.860663,0,0,32.860663,-16327.892,-28210.14)">
      <g
         id="g4752">
        <path
           style="fill:none;fill-rule:evenodd;stroke:#c6c6c6;stroke-width:1.10475123;stroke-linecap:butt;stroke-linejoin:miter;stroke-miterlimit:4;stroke-dasharray:none;stroke-opacity:1"
           d="m 497.43498,878.05188 0,9.32028 14.47619,0 0,-9.32028 z"
           id="path4189"
           inkscape:connector-curvature="0" />
        <path
           d="m 507.04026,882.97844 4.94594,4.535 z m -4.91949,0 -4.77884,4.535 z m -4.29425,-4.87938 c 0,0 2.92988,4.62265 5.45236,6.079 0.20661,0.11929 0.64678,0.36949 1.45205,0.36949 0.75489,0 1.13115,-0.23853 1.36591,-0.36949 2.48252,-1.38484 5.42826,-6.14356 5.42826,-6.14356 z"
           style="fill:none;fill-rule:evenodd;stroke:#c6c6c6;stroke-width:0.91294569;stroke-linecap:butt;stroke-linejoin:miter;stroke-miterlimit:4;stroke-dasharray:none;stroke-opacity:1"
           id="path4739"
           inkscape:connector-curvature="0" />
        <g
           id="g4225"
           transform="matrix(0.02363284,0,0,0.02363284,504.08397,881.01123)">
          <path
             id="path4187"
             d="m 254.37,22.255 c -1.161,-0.642 -2.53,-0.795 -3.803,-0.428 -1.274,0.367 -2.35,1.226 -2.992,2.387 l -21.758,39.391 c -1.335,2.417 -0.458,5.459 1.96,6.794 36.839,20.349 59.723,59.096 59.723,101.121 0,63.649 -51.782,115.431 -115.431,115.431 -63.649,0 -115.431,-51.782 -115.431,-115.431 0,-23.888 7.557,-47.427 21.382,-66.897 l 34.478,34.478 c 1.338,1.337 3.315,1.806 5.109,1.21 1.795,-0.596 3.101,-2.152 3.374,-4.024 L 139.963,6.271 c 0.228,-1.563 -0.295,-3.141 -1.412,-4.258 -1.117,-1.117 -2.7,-1.639 -4.258,-1.412 L 4.278,19.584 c -1.872,0.273 -3.428,1.579 -4.023,3.374 -0.596,1.795 -0.127,3.772 1.21,5.109 L 38.757,65.359 C 14.788,95.484 1.638,133 1.638,171.52 c 0,93.976 76.455,170.431 170.431,170.431 93.976,0 170.431,-76.455 170.431,-170.431 0,-62.042 -33.769,-119.237 -88.13,-149.265 z"
             inkscape:connector-curvature="0"
             style="fill:#336699;fill-opacity:1" />
          <g
             id="g4189" />
          <g
             id="g4191" />
          <g
             id="g4193" />
          <g
             id="g4195" />
          <g
             id="g4197" />
          <g
             id="g4199" />
          <g
             id="g4201" />
          <g
             id="g4203" />
          <g
             id="g4205" />
          <g
             id="g4207" />
          <g
             id="g4209" />
          <g
             id="g4211" />
          <g
             id="g4213" />
          <g
             id="g4215" />
          <g
             id="g4217" />
        </g>
      </g>
    </g>
  </g>
</svg>
